<!-- This Source Code Form is subject to the terms of the Mozilla Public
   - License, v. 2.0. If a copy of the MPL was not distributed with this
   - file, You can obtain one at http://mozilla.org/MPL/2.0/. -->
<!-- Monochrome variant: single color, no gradients. Uses currentColor so it
     can be tinted by CSS context (e.g., toolbar). -->
<svg xmlns="http://www.w3.org/2000/svg" width="512" height="512" viewBox="0 0 512 512" fill="currentColor">
  <defs>
    <clipPath id="orbClipM">
      <circle cx="256" cy="256" r="208"/>
    </clipPath>
  </defs>
  <circle cx="256" cy="256" r="208" fill="currentColor" fill-opacity="0.15"/>
  <circle cx="256" cy="256" r="208" fill="none" stroke="currentColor" stroke-width="10"/>
  <g clip-path="url(#orbClipM)">
    <path d="M120 332 C 170 290, 230 280, 300 296 C 360 310, 410 296, 446 268 C 430 320, 384 360, 320 372 C 256 384, 198 372, 156 356 Z" fill="currentColor" fill-opacity="0.75"/>
    <path d="M150 296 C 210 232, 286 208, 360 214 C 432 220, 480 188, 502 156 C 484 234, 432 286, 360 304 C 296 320, 232 314, 180 324 Z" fill="currentColor"/>
  </g>
</svg>
